#!OML:ASF I:\Actors\actors\Patient Classification 1\Patient 1\Session 1\Subject1.ASF
:FULLY-SPECIFIED
:DEGREES
1735
root 0.15613 17.6011 7.86476 21.4311 -2.9147 -9.30311
lowerback 6.96196 1.93391 6.97339
upperback 0.152884 3.2566 3.48887
thorax -3.56817 1.51976 -0.60169
lowerneck -17.027 -5.23444 -5.47808
upperneck 12.2421 -7.10707 8.17524
head 7.03565 -2.96495 2.75315
rclavicle 9.93923e-015 3.06128e-014
rhumerus 46.4337 29.6344 -29.246
rradius 66.3484
rwrist 17.1078
rhand 14.0672 -50.2832
rfingers 7.12502
rthumb 38.9729 -435.811
lclavicle 9.93923e-015 3.06128e-014
lhumerus 57.7764 -37.2338 37.5602
lradius 62.1115
lwrist 14.1385
lhand -22.863 35.6086
lfingers 7.12502
lthumb 3.57537 65.5584
rfemur -23.4637 27.2968 14.1246
rtibia 4.76562
rfoot -9.30753 -27.8661
rtoes 3.01558
lfemur -17.1603 -62.9442 9.68222
ltibia -4.67074
lfoot -75.8992 57.5292
ltoes 42.2737
1736
root 0.154335 17.602 7.86667 21.3988 -2.83194 -9.34891
lowerback 6.94164 1.84804 6.96692
upperback 0.104856 3.14546 3.53115
thorax -3.61638 1.46309 -0.544365
lowerneck -17.3047 -5.218 -5.60961
upperneck 12.7194 -7.08403 8.22763
head 7.2431 -2.93993 2.78995
rclavicle -1.98785e-016 1.74931e-014
rhumerus 46.26 30.3425 -29.0714
rradius 66.4578
rwrist 17.9126
rhand 12.8658 -53.0596
rfingers 7.12502
rthumb 37.8391 -438.902
lclavicle -1.98785e-016 1.74931e-014
lhumerus 58.1049 -37.3784 36.7973
lradius 61.9964
lwrist 16.3617
lhand -19.7094 38.5129
lfingers 7.12502
lthumb 6.62033 68.3894
rfemur -23.4173 27.3233 14.2114
rtibia 4.78974
rfoot -9.39567 -27.9277
rtoes 3.17811
lfemur -17.212 -63.0206 9.80823
ltibia -4.65373
lfoot -75.8745 57.7014
ltoes 42.1268
1737
root 0.151756 17.603 7.8706 21.3682 -2.75909 -9.35937
lowerback 6.92875 1.74397 6.91498
upperback 0.0217527 3.00892 3.54508
thorax -3.70735 1.39274 -0.489784
lowerneck -17.0715 -5.08506 -5.27094
upperneck 12.4908 -6.91354 7.84771
head 7.08922 -2.8856 2.63525
rclavicle -3.27995e-014 1.51076e-014
rhumerus 45.9713 31.062 -29.2367
rradius 66.5374
rwrist 19.0327
rhand 12.2756 -56.7663
rfingers 7.12502
rthumb 37.2813 -442.758
lclavicle -3.27995e-014 1.51076e-014
lhumerus 58.4557 -37.5856 35.7707
lradius 61.797
lwrist 18.2181
lhand -17.4444 40.071
lfingers 7.12502
lthumb 8.80648 69.8672
rfemur -23.3657 27.3678 14.2523
rtibia 4.8061
rfoot -9.46822 -28.0086
rtoes 3.4146
lfemur -17.2362 -63.1109 9.85624
ltibia -4.61644
lfoot -75.8745 57.8179
ltoes 42.0346
1738
root 0.151071 17.6037 7.87675 21.3281 -2.70752 -9.38384
lowerback 6.88637 1.62901 6.84414
upperback -0.0399693 2.85281 3.58526
thorax -3.7624 1.31478 -0.394069
lowerneck -17.1017 -4.92895 -5.29475
upperneck 12.7636 -6.71461 7.85859
head 7.17048 -2.78514 2.66637
rclavicle 1.59028e-015 -7.95139e-015
rhumerus 45.7059 31.6972 -29.5615
rradius 66.5667
rwrist 20.1267
rhand 12.4941 -60.8752
rfingers 7.12502
rthumb 37.4879 -446.812
lclavicle 1.59028e-015 -7.95139e-015
lhumerus 58.8301 -37.8917 34.498
lradius 61.5888
lwrist 20.047
lhand -17.3479 40.0723
lfingers 7.12502
lthumb 8.89963 69.8647
rfemur -23.2965 27.334 14.3298
rtibia 4.83286
rfoot -9.4556 -28.0073
rtoes 3.49602
lfemur -17.1731 -63.1991 9.83243
ltibia -4.58782
lfoot -76.0132 57.7034
ltoes 42.1245
1739
root 0.151953 17.6032 7.88372 21.2899 -2.67706 -9.44077
lowerback 6.783 1.52931 6.80451
upperback -0.0672896 2.71142 3.64341
thorax -3.74522 1.24628 -0.295722
lowerneck -17.1221 -4.75626 -5.09659
upperneck 12.9924 -6.49707 7.59911
head 7.21679 -2.69007 2.57535
rclavicle -3.97569e-015 -4.17448e-014
rhumerus 45.4109 32.2531 -29.9807
rradius 66.5879
rwrist 20.8724
rhand 12.9951 -64.9058
rfingers 7.12502
rthumb 37.9612 -269.284
lclavicle -3.97569e-015 -4.17448e-014
lhumerus 59.2191 -38.2245 33.2134
lradius 61.4176
lwrist 21.445
lhand -18.0149 39.4249
lfingers 7.12502
lthumb 8.25596 69.2436
rfemur -23.2268 27.2489 14.4496
rtibia 4.85267
rfoot -9.41042 -27.9396
rtoes 3.47814
lfemur -17.0533 -63.2608 9.8019
ltibia -4.60171
lfoot -76.0886 57.666
ltoes 42.1682
1740
root 0.151371 17.6018 7.88897 21.2788 -2.68191 -9.47689
lowerback 6.64261 1.47269 6.74519
upperback -0.0659544 2.61939 3.68828
thorax -3.67433 1.20438 -0.203557
lowerneck -17.0907 -4.60376 -4.86457
upperneck 13.075 -6.29475 7.26935
head 7.20506 -2.6107 2.45447
rclavicle -9.74045e-015 -2.34566e-014
rhumerus 44.9376 32.702 -30.6549
rradius 66.5753
rwrist 21.6287
rhand 13.3032 -68.4163
rfingers 7.12502
rthumb 38.2522 -265.854
lclavicle -9.74045e-015 -2.34566e-014
lhumerus 59.6422 -38.4789 31.9989
lradius 61.3295
lwrist 22.1966
lhand -18.2779 38.8188
lfingers 7.12502
lthumb 8.00214 68.6473
rfemur -23.1849 27.2361 14.5226
rtibia 4.85255
rfoot -9.44859 -27.8999
rtoes 3.3017
lfemur -16.9447 -63.2783 9.75475
ltibia -4.63197
lfoot -76.0343 57.8651
ltoes 41.9793
1741
root 0.150358 17.5994 7.8926 21.2913 -2.71948 -9.44565
lowerback 6.50737 1.34477 6.56085
upperback -0.0612147 2.42561 3.78711
thorax -3.6148 1.11452 0.0223847
lowerneck -17.009 -4.41543 -4.90696
upperneck 13.0455 -5.99188 7.05739
head 7.15558 -2.48951 2.42921
rclavicle -3.18055e-015 2.38542e-015
rhumerus 44.5647 33.2165 -31.5722
rradius 66.4961
rwrist 22.599
rhand 13.5928 -71.4792
rfingers 7.12502
rthumb 38.5255 -262.867
lclavicle -3.18055e-015 2.38542e-015
lhumerus 59.5929 -38.5222 31.1474
lradius 61.3572
lwrist 22.5838
lhand -18.158 38.5541
lfingers 7.12502
lthumb 8.11787 68.3782
rfemur -23.1693 27.2009 14.5122
rtibia 4.84923
rfoot -9.49884 -27.8251
rtoes 3.2755
lfemur -16.839 -63.2841 9.61543
ltibia -4.64038
lfoot -76.0836 57.8911
ltoes 41.9384
1742
root 0.149154 17.5995 7.89485 21.2605 -2.72074 -9.3886
lowerback 6.48583 1.13201 6.29409
upperback -0.102626 2.1291 3.92591
thorax -3.67424 0.971918 0.34115
lowerneck -16.7925 -4.20909 -4.9949
upperneck 12.9838 -5.6619 6.87075
head 7.07379 -2.3584 2.42412
rclavicle 2.87244e-014 -1.51076e-014
rhumerus 44.1217 33.777 -32.8409
rradius 66.4413
rwrist 23.4747
rhand 14.1174 -75.4673
rfingers 7.12502
rthumb 39.0203 -259.018
lclavicle 2.87244e-014 -1.51076e-014
lhumerus 59.1211 -38.522 30.6292
lradius 61.4533
lwrist 22.7241
lhand -17.9007 38.8615
lfingers 7.12502
lthumb 8.36613 68.6758
rfemur -23.1133 27.2016 14.4796
rtibia 4.84486
rfoot -9.54409 -27.8328
rtoes 3.55998
lfemur -16.7144 -63.3499 9.43837
ltibia -4.63028
lfoot -76.1676 57.7977
ltoes 42.022
1743
root 0.146389 17.6031 7.8979 21.1555 -2.67246 -9.31974
lowerback 6.58777 1.07143 6.11788
upperback -0.204798 2.05097 3.88602
thorax -3.84565 0.931106 0.40164
lowerneck -16.5393 -4.13054 -4.50089
upperneck 13.1095 -5.63616 6.55774
head 7.04586 -2.35233 2.24797
rclavicle -6.16232e-015 -4.53229e-014
rhumerus 42.582 33.8505 -35.2146
rradius 66.3648
rwrist 24.6416
rhand 14.7574 -80.2098
rfingers 7.12502
rthumb 39.6233 -254.452
lclavicle -6.16232e-015 -4.53229e-014
lhumerus 59.2624 -38.8961 29.7116
lradius 61.6579
lwrist 22.6459
lhand -17.939 39.4785
lfingers 7.12502
lthumb 8.32923 69.2943
rfemur -22.9516 27.2759 14.4613
rtibia 4.80725
rfoot -9.57505 -27.9622
rtoes 3.49707
lfemur -16.5494 -63.4938 9.22125
ltibia -4.59817
lfoot -76.1898 57.8459
ltoes 41.9406
1744
root 0.1432 17.605 7.90311 21.0893 -2.60897 -9.28679
lowerback 6.61302 1.17135 6.13789
upperback -0.338554 2.18909 3.67061
thorax -3.98498 0.992171 0.152105
lowerneck -16.1916 -4.17908 -4.0708
upperneck 13.1275 -5.81168 6.53189
head 6.98969 -2.42355 2.1544
rclavicle -5.56597e-015 3.91606e-014
rhumerus 40.155 33.369 -38.5492
rradius 66.2329
rwrist 26.3009
rhand 14.9168 -84.1138
rfingers 7.12502
rthumb 39.7733 -250.592
lclavicle -5.56597e-015 3.91606e-014
lhumerus 60.0637 -39.5497 28.2972
lradius 62.0136
lwrist 22.5166
lhand -18.3641 40.1468
lfingers 7.12502
lthumb 7.91889 69.9785
rfemur -22.8178 27.3044 14.4825
rtibia 4.7649
rfoot -9.58705 -28.0448
rtoes 3.41986
lfemur -16.4857 -63.6145 9.14033
ltibia -4.55984
lfoot -76.2673 57.8546
ltoes 41.9182
1745
root 0.14187 17.6041 7.90912 21.0839 -2.52743 -9.28704
lowerback 6.5354 1.30119 6.26783
upperback -0.476978 2.36455 3.4203
thorax -4.06269 1.07002 -0.195754
lowerneck -15.7805 -4.22984 -3.56366
upperneck 13.1012 -6.00255 6.50359
head 6.90606 -2.50061 2.04748
rclavicle -1.78906e-015 3.39922e-014
rhumerus 37.6903 32.6459 -41.993
rradius 66.1321
rwrist 27.8994
rhand 14.4004 -86.7829
rfingers 7.12502
rthumb 39.2869 -247.78
lclavicle -1.78906e-015 3.39922e-014
lhumerus 61.13 -40.2443 26.6057
lradius 62.4452
lwrist 22.2447
lhand -19.1217 40.8566
lfingers 7.12502
lthumb 7.18768 70.7146
rfemur -22.7588 27.2597 14.5242
rtibia 4.7496
rfoot -9.65324 -28.0504
rtoes 3.84836
lfemur -16.516 -63.7107 9.18742
ltibia -4.54018
lfoot -76.3129 57.8448
ltoes 41.9375
1746
root 0.140566 17.6033 7.91522 21.0874 -2.42411 -9.28655
lowerback 6.47538 1.2212 6.1078
upperback -0.505368 2.24379 3.45348
thorax -4.07129 1.01372 -0.0599681
lowerneck -15.8407 -4.09501 -3.25687
upperneck 13.2155 -5.85205 6.2519
head 6.92794 -2.43159 1.93198
rclavicle -2.88238e-015 5.28767e-014
rhumerus 36.0893 32.1608 -44.9576
rradius 66.1238
rwrist 29.1767
rhand 13.848 -88.512
rfingers 7.12502
rthumb 38.7662 -245.901
lclavicle -2.88238e-015 5.28767e-014
lhumerus 61.382 -40.442 25.5233
lradius 62.888
lwrist 21.7858
lhand -20.0801 41.6099
lfingers 7.12502
lthumb 6.26247 71.4974
rfemur -22.716 27.1003 14.5943
rtibia 4.7674
rfoot -9.71561 -27.9477
rtoes 4.02207
lfemur -16.6329 -63.8134 9.30763
ltibia -4.49753
lfoot -76.2259 58.0315
ltoes 41.7128
1747
root 0.137449 17.6026 7.92081 21.1021 -2.32595 -9.32274
lowerback 6.47159 0.752446 5.53037
upperback -0.319485 1.58316 3.96893
thorax -3.93389 0.709548 0.86006
lowerneck -16.9873 -3.68163 -3.53306
upperneck 13.7666 -5.14824 5.79238
head 7.26003 -2.11981 1.8916
rclavicle -6.75868e-015 -1.11319e-014
rhumerus 36.0451 32.4024 -47.0817
rradius 66.1752
rwrist 30.0485
rhand 13.3829 90.0557
rfingers 7.12502
rthumb 38.3274 -244.235
lclavicle -6.75868e-015 -1.11319e-014
lhumerus 59.9553 -39.7188 25.7392
lradius 63.3202
lwrist 21.2762
lhand -20.9538 42.4696
lfingers 7.12502
lthumb 5.41895 72.3803
rfemur -22.6996 26.8926 14.7219
rtibia 4.80439
rfoot -9.71357 -27.7957
rtoes 3.7064
lfemur -16.7924 -63.8865 9.50948
ltibia -4.4428
lfoot -76.164 58.2097
ltoes 41.4884
